<svg xmlns="http://www.w3.org/2000/svg" version="1.1" xmlns:xlink="http://www.w3.org/1999/xlink" xmlns:svgjs="http://svgjs.dev/svgjs" width="1000" height="1000" viewBox="0 0 1000 1000"><rect width="1000" height="1000" fill="#1d366f"></rect><g transform="matrix(0.7,0,0,0.7,149.57605563665675,397.8521937589092)"><svg viewBox="0 0 396 116" data-background-color="#1d366f" preserveAspectRatio="xMidYMid meet" height="292" width="1000" xmlns="http://www.w3.org/2000/svg" xmlns:xlink="http://www.w3.org/1999/xlink"><defs></defs><g id="tight-bounds" transform="matrix(1,0,0,1,0.24008861730862918,-0.029620724234177942)"><svg viewBox="0 0 395.52 116.05890133333332" height="116.05890133333332" width="395.52"><g><svg viewBox="0 0 395.52 116.05890133333332" height="116.05890133333332" width="395.52"><g><svg viewBox="0 0 395.52 116.05890133333332" height="116.05890133333332" width="395.52"><g><svg viewBox="0 0 395.52 116.05890133333332" height="116.05890133333332" width="395.52"><g><svg viewBox="0 0 395.52 116.05890133333332" height="116.05890133333332" width="395.52"><path d="M394.594 24.892C392.735 12.846 387.435 9.497 387.435 9.497 371.165-2.912 350.86-0.237 332.619 1.546 300.414 1.618 268.339 4.268 236.208 5.69 168.767 5.907 100.749 2.341 33.643 11.135 27.339 13.833-6.54 11.665 1.121 26.434 3.129 32.578 10.456 39.397 10.232 45.035 11.236 46.023 12.631 43.758 13.226 45.179 15.309 49.01 18.711 47.203 21.501 49.468 17.614 55.516 20.403 60.551 23.062 65.828 18.377 67.201 12.371 66.551 9.675 71.104 9.396 74.405 7.89 73.779 6.235 73.634 5.026 73.538 2.59 73.899 2.999 74.935 4.394 78.477-1.594 80.525 2.162 83.994-0.422 87.753 3.948 91.006 3.353 95.077 3.278 95.897 3.687 96.595 4.338 96.788 7.22 97.824 3.018 99.848 3.464 102.041 33.029 117.027 65.104 106.667 95.394 113.557 103.259 108.739 97.346 115.268 100.489 114.256 102.943 113.076 104.728 117.967 107.499 115.196 107.927 114.401 107.276 112.521 108.8 112.883 109.6 113.076 110.307 113.027 110.418 111.919 110.586 110.257 109.117 111.293 108.726 110.425 112.947 106.04 111.906 116.473 115.866 116.039 115.68 114.762 114.528 112.931 116.889 113.172 119.232 111.341 119.306 109.823 121.389 113.943 121.463 114.834 121.835 115.461 122.43 115.894 128.938 111.413 135.409 117.485 142.233 115.461 146.417 113.244 150.433 116.665 154.672 115.822 156.16 115.148 157.666 113.943 159.098 115.967 176.632 116.4 195.319 114.593 211.943 116.039 256.364 113.341 303.835 117.147 350.674 113.581 361.719 112.208 373.192 110.257 383.958 108.69 383.958 108.69 392.679 104.402 392.679 85.127S394.538 68.261 394.817 52.913C395.096 37.566 396.398 36.939 394.538 24.892Z" opacity="1" fill="#ffffff" data-fill-palette-color="tertiary"></path><g transform="matrix(1,0,0,1,55.76832,26.230666666666668)"><svg width="283.98335999999995" viewBox="3.25 -34.25 154.49000549316406 34.599998474121094" height="63.597567999999995" data-palette-color="#1d366f"><path d="M10.95-27.55L10.95-17 13.5-17Q19.6-17 19.6-22.55L19.6-22.55Q19.6-27.55 13.95-27.55L13.95-27.55 10.95-27.55ZM3.25 0L3.25-33.7 14.85-33.7Q20.45-33.7 23.93-30.55 27.4-27.4 27.4-22.55L27.4-22.55Q27.4-17 23.78-13.95 20.15-10.9 14.85-10.9L14.85-10.9 10.95-10.9 10.95 0 3.25 0ZM30.15-16.95L30.15-16.95Q30.15-24.7 34.62-29.48 39.1-34.25 46.55-34.25L46.55-34.25Q54.05-34.25 58.5-29.5 62.95-24.75 62.95-16.95L62.95-16.95Q62.95-9.2 58.47-4.42 54 0.35 46.55 0.35L46.55 0.35Q39.05 0.35 34.6-4.4 30.15-9.15 30.15-16.95ZM40.6-24.48Q38.4-21.7 38.4-16.95 38.4-12.2 40.6-9.43 42.8-6.65 46.55-6.65 50.3-6.65 52.5-9.43 54.7-12.2 54.7-16.95 54.7-21.7 52.5-24.48 50.3-27.25 46.55-27.25 42.8-27.25 40.6-24.48ZM75.9-27.55L75.9-17 78.45-17Q84.55-17 84.55-22.55L84.55-22.55Q84.55-27.55 78.9-27.55L78.9-27.55 75.9-27.55ZM68.2 0L68.2-33.7 79.8-33.7Q85.4-33.7 88.87-30.55 92.35-27.4 92.35-22.55L92.35-22.55Q92.35-17 88.72-13.95 85.1-10.9 79.8-10.9L79.8-10.9 75.9-10.9 75.9 0 68.2 0ZM108.69-10.1L95.34-10.1 95.34-16.1 108.69-16.1 108.69-10.1ZM122.39 0L114.69 0 114.69-33.7 122.39-33.7 122.39 0ZM137.09 0L129.39 0 129.39-33.7 137.84-33.7 145.69-19.75Q147.34-16.8 148.56-14.23 149.79-11.65 150.14-10.6L150.14-10.6 150.54-9.5Q150.04-13.2 150.04-19.75L150.04-19.75 150.04-33.7 157.74-33.7 157.74 0 149.29 0 141.24-13.95Q139.64-16.65 138.41-19.28 137.19-21.9 136.74-23.15L136.74-23.15 136.34-24.4Q137.09-19.9 137.09-13.95L137.09-13.95 137.09 0Z" opacity="1" transform="matrix(1,0,0,1,0,0)" fill="#1d366f" class="undefined-text-0" data-fill-palette-color="quaternary" id="text-0"></path></svg></g></svg></g></svg></g></svg></g><g></g></svg></g></svg><rect width="395.52" height="116.05890133333332" fill="none" stroke="none" visibility="hidden"></rect></g></svg></g></svg>